<svg width="104" height="100" viewBox="0 0 104 100" fill="none" xmlns="http://www.w3.org/2000/svg">
<path d="M101.427 89.8305H90.9408L88.3948 65.9865L91.2124 70.1525L91.9104 73.5983C92.2473 75.2593 93.3063 76.6729 94.8174 77.4814C95.6735 77.939 96.6139 78.1695 97.5594 78.1695C98.2831 78.1695 99.0103 78.0339 99.7031 77.761C101.195 77.1729 102.378 75.9864 102.951 74.5051C103.521 73.0237 103.437 71.3627 102.718 69.9441L101.247 67.0407C101.242 67.0288 101.231 67.022 101.225 67.0119C101.221 67.0034 101.221 66.9949 101.218 66.9865L90.903 48.3424C90.7122 47.9966 90.4027 47.7271 90.0331 47.5797L85.3743 45.7424C88.871 42.9424 91.1127 38.6746 91.1127 33.8983C91.1127 31.3441 90.4302 28.8288 89.1753 26.578L88.2882 17.8288C91.056 16.6729 92.8318 14.4034 92.8318 11.8644C92.8318 8.21525 89.1581 5.23051 84.575 5.08983C82.7475 1.96271 79.3592 0 75.6408 0C71.9223 0 68.534 1.96271 66.7066 5.08983C62.1234 5.23051 58.4497 8.21525 58.4497 11.8644C58.4497 14.4034 60.2255 16.6729 62.9933 17.8288L62.1062 26.578C60.8513 28.8288 60.1688 31.3441 60.1688 33.8983C60.1688 38.6746 62.4105 42.9424 65.9089 45.7407L61.2501 47.578C60.975 47.6864 60.7327 47.8644 60.547 48.0932L54.745 55.2441L47.7345 49.7153L45.8624 46.639C45.5443 46.1153 45.1386 45.6712 44.7002 45.2661V40.678C44.7002 38.4712 43.2579 36.6068 41.262 35.9051V28.8136H42.9811C45.8245 28.8136 48.1385 26.5322 48.1385 23.7288V13.5593C48.1385 10.7559 45.8245 8.47458 42.9811 8.47458H36.1047C33.2613 8.47458 30.9474 10.7559 30.9474 13.5593V23.7288C30.9474 26.5322 33.2613 28.8136 36.1047 28.8136H37.8238V35.9051C35.8279 36.6068 34.3856 38.4712 34.3856 40.678V47.4576C34.3856 47.4593 34.3856 47.4627 34.3856 47.4644C33.9558 48.4729 33.7633 49.5729 33.9025 50.6983C34.1484 52.6593 35.2744 54.3678 36.9918 55.3848L40.2443 57.3085L51.6729 67.1678C53.5932 68.822 56.4074 68.8576 58.3706 67.2458L63.1755 63.2966L60.3407 89.8305H30.2872L32.3038 85.8542C35.5219 84.6288 37.8204 81.5661 37.8204 77.9661V74.2644C39.8163 73.5627 41.2586 71.6983 41.2586 69.4915C41.2586 66.6881 38.9447 64.4068 36.1013 64.4068H5.15732C2.31392 64.4068 0 66.6881 0 69.4915C0 71.6983 1.44233 73.5627 3.43822 74.2644V77.9661C3.43822 81.5661 5.73666 84.6288 8.95483 85.8542L10.9713 89.8305H1.71911C0.77016 89.8305 0 90.5898 0 91.5254V98.3051C0 99.2407 0.77016 100 1.71911 100H101.427C102.376 100 103.146 99.2407 103.146 98.3051V91.5254C103.146 90.5898 102.376 89.8305 101.427 89.8305ZM37.8204 25.4237H36.1013C35.154 25.4237 34.3822 24.6627 34.3822 23.7288V13.5593C34.3822 12.6254 35.154 11.8644 36.1013 11.8644H37.8204V25.4237ZM99.6429 71.4576C99.9369 72.0373 99.9713 72.6915 99.7375 73.2983C99.5037 73.9034 99.0378 74.3712 98.4275 74.6119C97.7863 74.8644 97.066 74.8237 96.4574 74.4983C95.8489 74.1729 95.4191 73.6017 95.2833 72.9322L94.8397 70.7441L98.7885 69.7712L99.6429 71.4576ZM88.1816 50.5L97.1348 66.6831L93.59 67.5559L87.5456 58.617L85.0494 49.2644L88.1816 50.5ZM84.4082 61.017L87.4854 89.8305H63.7978L66.8733 61.017H84.4082ZM67.5575 57.6271L70.0915 48.1271C70.1602 48.1525 70.2307 48.1712 70.2995 48.1949C70.645 48.3203 70.9923 48.4407 71.3481 48.5424C71.4839 48.5814 71.6215 48.6119 71.7573 48.6458C72.0856 48.7305 72.414 48.8119 72.7492 48.8746C72.9177 48.9068 73.0879 48.9254 73.2563 48.9508C73.5675 48.9983 73.8769 49.0492 74.1933 49.0797C74.415 49.1 74.6385 49.1017 74.8603 49.1136C75.1216 49.1271 75.3777 49.1525 75.6408 49.1525C75.9038 49.1525 76.1599 49.1271 76.4212 49.1136C76.6447 49.1017 76.8665 49.1 77.0882 49.0797C77.4046 49.0508 77.714 49 78.0252 48.9508C78.1936 48.9254 78.3638 48.9068 78.5323 48.8746C78.8675 48.8119 79.1959 48.7288 79.5242 48.6458C79.66 48.6102 79.7976 48.5814 79.9334 48.5424C80.2892 48.4407 80.6382 48.322 80.982 48.1949C81.0508 48.1695 81.1213 48.1525 81.19 48.1271L83.7257 57.6271H67.5575ZM61.8879 11.8644C61.8879 10.0271 64.2499 8.47458 67.0452 8.47458C67.1449 8.47458 67.2395 8.48644 67.3357 8.49661L67.6125 8.52203C68.3363 8.56441 69.0308 8.1661 69.323 7.5C70.4095 5.00339 72.8902 3.38983 75.6408 3.38983C78.3913 3.38983 80.872 5.00339 81.9602 7.5C82.2507 8.1661 82.9556 8.57797 83.6707 8.52203L83.9475 8.49661C84.042 8.48644 84.1366 8.47458 84.2363 8.47458C87.0316 8.47458 89.3936 10.0271 89.3936 11.8644C89.3936 13.2186 88.0046 14.5136 86.0156 15.0153C85.1921 15.222 84.6454 15.9915 84.7297 16.8254L85.7749 27.1186H65.5066L66.5501 16.8271C66.6343 15.9932 66.0877 15.2237 65.2642 15.0169C63.2769 14.5136 61.8879 13.2186 61.8879 11.8644ZM63.607 33.8983C63.607 32.7492 63.7806 31.6068 64.1141 30.5085H87.1656C87.5009 31.6068 87.6745 32.7492 87.6745 33.8983C87.6745 38.6034 84.8741 42.6661 80.8376 44.5831C80.4474 44.7678 80.0485 44.9322 79.6446 45.0729C79.6256 45.0797 79.6067 45.0864 79.5878 45.0932C77.0264 45.9763 74.2517 45.9763 71.6902 45.0932C71.6713 45.0864 71.6524 45.0797 71.6335 45.0729C71.2295 44.9322 70.8324 44.7678 70.4404 44.5831C66.4074 42.6661 63.607 38.6034 63.607 33.8983ZM41.2586 11.8644H42.9777C43.9249 11.8644 44.6968 12.6254 44.6968 13.5593V23.7288C44.6968 24.6627 43.9249 25.4237 42.9777 25.4237H41.2586V11.8644ZM39.5395 38.9831C40.4867 38.9831 41.2586 39.7441 41.2586 40.678V43.6237C41.2483 43.622 41.2362 43.622 41.2259 43.6203C41.1847 43.6153 41.1486 43.5966 41.1073 43.5915C41.0128 43.5797 40.9199 43.5966 40.8271 43.5881C40.528 43.5644 40.2323 43.561 39.9332 43.578C39.7836 43.5864 39.6358 43.5864 39.4896 43.6051C39.1355 43.6492 38.79 43.7305 38.4478 43.8322C38.3017 43.8763 38.1608 43.922 38.0181 43.9746C37.9527 43.9983 37.8857 44.0136 37.8221 44.039V40.678H37.8204C37.8204 39.7441 38.5923 38.9831 39.5395 38.9831ZM38.7607 52.478C37.9545 52.0017 37.4267 51.2017 37.3132 50.2831C37.2376 49.6847 37.3631 49.1 37.6313 48.5797C37.6381 48.5661 37.6502 48.5576 37.6571 48.5441C37.731 48.4051 37.8049 48.2864 37.8805 48.1763C37.9734 48.0492 38.0645 47.9203 38.178 47.8085C38.4186 47.5695 38.6988 47.3881 38.9928 47.2475C39.0169 47.2356 39.0409 47.2203 39.065 47.2085C39.359 47.078 39.6719 46.9966 39.9916 46.9644C40.0157 46.9627 40.038 46.9593 40.0621 46.9576C40.3733 46.9322 40.6878 46.9593 40.9973 47.0288C41.0299 47.0356 41.0626 47.0424 41.0936 47.0508C41.415 47.1356 41.7279 47.2661 42.015 47.4593C42.0236 47.4644 42.0339 47.4678 42.0425 47.4729C42.388 47.7102 42.6889 48.0136 42.9141 48.3831L44.2533 50.5847L40.9939 53.7983L38.7607 52.478ZM56.1667 64.6407C55.5134 65.1763 54.5731 65.1678 53.9336 64.6153L43.7719 55.8492L46.5414 53.1186L53.9353 58.9509C54.6745 59.5356 55.7575 59.4186 56.3506 58.6864L62.9434 50.561L66.2286 49.2661L63.7995 58.3695L56.1667 64.6407ZM5.15732 71.1864C4.2101 71.1864 3.43822 70.4254 3.43822 69.4915C3.43822 68.5576 4.2101 67.7966 5.15732 67.7966H36.1013C37.0485 67.7966 37.8204 68.5576 37.8204 69.4915C37.8204 70.4254 37.0485 71.1864 36.1013 71.1864H5.15732ZM6.87643 77.9661V74.5763H34.3822V77.9661C34.3822 80.7695 32.0682 83.0508 29.2248 83.0508H12.0338C9.19035 83.0508 6.87643 80.7695 6.87643 77.9661ZM28.1624 86.4407L26.4433 89.8305H22.3484V86.4407H28.1624ZM18.9102 86.4407V89.8305H14.8153L13.0962 86.4407H18.9102ZM99.7083 96.6102H3.43822V93.2203H13.7529H27.5057H61.8879H89.3936H99.7083V96.6102Z" fill="#FF7A00"/>
<path d="M80.7981 67.7966H70.4835C69.5345 67.7966 68.7643 68.556 68.7643 69.4915V74.5763C68.7643 78.3153 71.8484 81.356 75.6408 81.356C79.4331 81.356 82.5172 78.3153 82.5172 74.5763V69.4915C82.5172 68.556 81.747 67.7966 80.7981 67.7966ZM79.079 74.5763C79.079 76.4458 77.537 77.9661 75.6408 77.9661C73.7446 77.9661 72.2026 76.4458 72.2026 74.5763V71.1865H79.079V74.5763Z" fill="#FF7A00"/>
<path d="M22.3484 57.6029V52.5666C22.3484 51.6171 21.5787 50.8475 20.6293 50.8475C19.6798 50.8475 18.9102 51.6171 18.9102 52.5666V57.6029C18.9102 58.5524 19.6798 59.322 20.6293 59.322C21.5787 59.322 22.3484 58.5524 22.3484 57.6029Z" fill="#FF7A00"/>
<path d="M30.944 59.2979V55.9564C30.944 55.007 30.1743 54.2373 29.2248 54.2373C28.2754 54.2373 27.5057 55.007 27.5057 55.9564V59.2979C27.5057 60.2473 28.2754 61.017 29.2248 61.017C30.1743 61.017 30.944 60.2473 30.944 59.2979Z" fill="#FF7A00"/>
<path d="M13.7529 59.2979V55.9564C13.7529 55.007 12.9832 54.2373 12.0337 54.2373C11.0843 54.2373 10.3146 55.007 10.3146 55.9564V59.2979C10.3146 60.2473 11.0843 61.017 12.0337 61.017C12.9832 61.017 13.7529 60.2473 13.7529 59.2979Z" fill="#FF7A00"/>
<path d="M12.0621 47.7932H12.0337C10.8471 47.7932 9.88483 48.7417 9.88483 49.9119C9.88483 51.082 10.8471 52.0305 12.0337 52.0305H12.0621C13.2487 52.0305 14.211 51.082 14.211 49.9119C14.211 48.7417 13.2487 47.7932 12.0621 47.7932Z" fill="#FF7A00"/>
<path d="M20.6577 43.5559H20.6293C19.4427 43.5559 18.4804 44.5044 18.4804 45.6746C18.4804 46.8447 19.4427 47.7932 20.6293 47.7932H20.6577C21.8443 47.7932 22.8065 46.8447 22.8065 45.6746C22.8065 44.5044 21.8443 43.5559 20.6577 43.5559Z" fill="#FF7A00"/>
<path d="M29.2532 47.7932H29.2248C28.0382 47.7932 27.0759 48.7417 27.0759 49.9119C27.0759 51.082 28.0382 52.0305 29.2248 52.0305H29.2532C30.4398 52.0305 31.4021 51.082 31.4021 49.9119C31.4021 48.7417 30.4398 47.7932 29.2532 47.7932Z" fill="#FF7A00"/>
</svg>
