<svg width="107" height="106" viewBox="0 0 107 106" fill="none" xmlns="http://www.w3.org/2000/svg">
<path d="M46.1066 51.75C44.5185 51.75 42.9661 51.2613 41.6456 50.3456C40.3251 49.4299 39.2959 48.1285 38.6882 46.6057C38.0804 45.083 37.9214 43.4075 38.2313 41.791C38.5411 40.1744 39.3058 38.6896 40.4288 37.5242C41.5518 36.3587 42.9825 35.565 44.5401 35.2435C46.0977 34.922 47.7122 35.087 49.1795 35.7177C50.6467 36.3484 51.9007 37.4165 52.7831 38.787C53.6654 40.1574 54.1363 41.7685 54.1363 43.4167C54.1337 45.626 53.287 47.7441 51.7817 49.3063C50.2763 50.8686 48.2355 51.7474 46.1066 51.75ZM46.1066 38.4167C45.1538 38.4167 44.2223 38.71 43.43 39.2594C42.6377 39.8088 42.0202 40.5897 41.6556 41.5033C41.2909 42.4169 41.1955 43.4223 41.3814 44.3922C41.5673 45.3621 42.0262 46.253 42.6999 46.9522C43.3737 47.6515 44.2322 48.1277 45.1667 48.3206C46.1013 48.5136 47.07 48.4145 47.9503 48.0361C48.8307 47.6577 49.5831 47.0168 50.1125 46.1946C50.6419 45.3723 50.9244 44.4056 50.9244 43.4167C50.9232 42.091 50.4152 40.82 49.5119 39.8826C48.6087 38.9452 47.384 38.418 46.1066 38.4167Z" fill="#FF7A00"/>
<path d="M46.1066 70.9166L32.17 54.9272C31.9764 54.6871 31.7847 54.4455 31.5951 54.2023C29.2145 51.1516 27.9285 47.4254 27.9342 43.5952C27.9342 38.9065 29.8488 34.4099 33.2568 31.0946C36.6648 27.7792 41.287 25.9166 46.1066 25.9166C50.9262 25.9166 55.5484 27.7792 58.9564 31.0946C62.3644 34.4099 64.279 38.9065 64.279 43.5952C64.2848 47.4236 62.9993 51.1482 60.6197 54.1975L60.6181 54.2023C60.6181 54.2023 60.1225 54.8356 60.0481 54.9207L46.1066 70.9166ZM34.2318 52.2657C34.2351 52.2657 34.6184 52.7607 34.7059 52.8668L46.1066 65.9473L57.5222 52.8491C57.5949 52.7607 57.9814 52.2625 57.9831 52.2609C59.9278 49.7684 60.9787 46.7244 60.9749 43.5952C60.9749 39.759 59.4084 36.08 56.6201 33.3674C53.8317 30.6548 50.0499 29.1309 46.1066 29.1309C42.1633 29.1309 38.3815 30.6548 35.5931 33.3674C32.8048 36.08 31.2383 39.759 31.2383 43.5952C31.2348 46.7263 32.287 49.7721 34.2334 52.2657H34.2318Z" fill="#FF7A00"/>
<path d="M46.4689 88.7143C70.4761 88.7143 89.9377 69.5265 89.9377 45.8571C89.9377 22.1878 70.4761 3 46.4689 3C22.4617 3 3 22.1878 3 45.8571C3 69.5265 22.4617 88.7143 46.4689 88.7143Z" stroke="#FF7A00" stroke-width="5" stroke-linecap="round" stroke-linejoin="round"/>
<path d="M79.0706 78L104.427 103" stroke="#FF7A00" stroke-width="5" stroke-linecap="round" stroke-linejoin="round"/>
</svg>
