<svg width="30" height="30" viewBox="0 0 30 30" fill="none" xmlns="http://www.w3.org/2000/svg">
<path d="M25.9994 30H25.8073C3.60329 28.6962 0.450661 9.56539 0.00997143 3.72692C-0.0589048 2.81163 0.231089 1.90589 0.816165 1.20891C1.40124 0.511939 2.23348 0.0808207 3.12983 0.0103858C3.21947 0.00346269 3.30949 1.08184e-06 3.39989 1.08184e-06H9.35485C9.80747 -0.000446338 10.2498 0.137897 10.6245 0.397111C10.9993 0.656325 11.2891 1.02447 11.4566 1.45385L13.1742 5.76923C13.3395 6.18871 13.3806 6.64855 13.2922 7.09164C13.2038 7.53473 12.9899 7.94155 12.677 8.26154L10.2701 10.7423C10.6446 12.9246 11.6672 14.9365 13.1994 16.5052C14.7316 18.0739 16.6992 19.1234 18.8353 19.5115L21.2874 17.0308C21.6055 16.7148 22.0076 16.5014 22.4437 16.4173C22.8797 16.3332 23.3304 16.382 23.7394 16.5577L27.9994 18.3C28.4136 18.4764 28.7669 18.7747 29.0144 19.1569C29.262 19.5391 29.3925 19.9879 29.3893 20.4462V26.5385C29.3893 27.4565 29.0321 28.337 28.3964 28.9861C27.7607 29.6353 26.8984 30 25.9994 30ZM3.39989 2.30769C3.2515 2.30724 3.10448 2.33663 2.96721 2.3942C2.82995 2.45176 2.70513 2.53637 2.59989 2.6432C2.49464 2.75002 2.41104 2.87697 2.35384 3.01678C2.29664 3.1566 2.26697 3.30655 2.26653 3.45808C2.26653 3.49039 2.26766 3.52231 2.26992 3.55385C2.78971 10.3846 6.12313 26.5385 25.9316 27.6923C26.2306 27.7106 26.5246 27.6069 26.7488 27.4039C26.973 27.201 27.109 26.9154 27.1271 26.61L27.1293 26.5385V20.4462L22.8693 18.7038L19.6263 21.9923L19.0839 21.9231C9.25315 20.6654 7.91979 10.6269 7.91979 10.5231L7.85199 9.96923L11.0611 6.65769L9.36615 2.30769H3.39989Z" fill="white"/>
<path d="M27.1293 11.5385V9.23077H21.9473L29.3893 1.63154L27.7915 0L20.3495 7.59923V2.30769H18.0895V11.5385H27.1293Z" fill="white"/>
</svg>
