<svg width="102" height="100" viewBox="0 0 102 100" fill="none" xmlns="http://www.w3.org/2000/svg">
<path d="M13.8922 88.4953L13.874 88.4816C13.0055 87.826 11.7622 87.9881 11.0966 88.8445C10.4314 89.7008 10.5962 90.9268 11.4645 91.5828L11.4827 91.5965C11.8421 91.868 12.2656 91.9992 12.686 91.9992C13.2813 91.9992 13.87 91.7356 14.2599 91.2336C14.9255 90.3772 14.7607 89.1514 13.8922 88.4953Z" fill="#FF7A00"/>
<path d="M13.8922 72.4797L13.874 72.466C13.0055 71.8104 11.7622 71.9725 11.0966 72.8289C10.4314 73.6852 10.5962 74.9111 11.4645 75.5672L11.4827 75.5809C11.8421 75.8523 12.2656 75.9836 12.686 75.9836C13.2813 75.9836 13.87 75.7199 14.2599 75.218C14.9255 74.3615 14.7607 73.1357 13.8922 72.4797Z" fill="#FF7A00"/>
<path d="M13.8922 56.4641L13.874 56.4504C13.0055 55.7947 11.7622 55.9568 11.0966 56.8133C10.4314 57.6695 10.5962 58.8955 11.4645 59.5516L11.4827 59.5652C11.8421 59.8367 12.2656 59.968 12.686 59.968C13.2813 59.968 13.87 59.7043 14.2599 59.2023C14.9255 58.3459 14.7607 57.1201 13.8922 56.4641Z" fill="#FF7A00"/>
<path d="M89.9454 88.4892L89.927 88.4756C89.0549 87.824 87.8124 87.9928 87.1516 88.8525C86.4907 89.7121 86.6619 90.9373 87.5339 91.5889L87.5523 91.6025C87.9103 91.8699 88.3305 91.9992 88.7473 91.9992C89.3461 91.9992 89.9381 91.7326 90.3277 91.2258C90.9886 90.366 90.8172 89.1408 89.9454 88.4892Z" fill="#FF7A00"/>
<path d="M89.9455 72.4738L89.9271 72.4601C89.055 71.8086 87.8125 71.9773 87.1517 72.8371C86.491 73.6965 86.6622 74.9216 87.534 75.5732L87.5524 75.5869C87.9104 75.8543 88.3306 75.9836 88.7474 75.9836C89.3462 75.9836 89.9382 75.717 90.3278 75.2101C90.9887 74.3506 90.8175 73.1254 89.9455 72.4738Z" fill="#FF7A00"/>
<path d="M89.9455 56.4582L89.927 56.4445C89.055 55.7929 87.8125 55.9617 87.1516 56.8215C86.4908 57.6812 86.6621 58.906 87.534 59.5576L87.5524 59.5713C87.9104 59.8386 88.3305 59.9679 88.7473 59.9679C89.3462 59.9679 89.9381 59.7013 90.3278 59.1945C90.9886 58.3349 90.8175 57.1097 89.9455 56.4582Z" fill="#FF7A00"/>
<path d="M73.1925 64.0625H73.1668C72.0729 64.0625 71.1858 64.9369 71.1858 66.0156C71.1858 67.0943 72.0727 67.9688 73.1668 67.9688H73.1925C74.2865 67.9688 75.1735 67.0943 75.1735 66.0156C75.1735 64.9369 74.2865 64.0625 73.1925 64.0625Z" fill="#FF7A00"/>
<path d="M28.2606 80.0781H28.2348C27.1409 80.0781 26.2538 80.9525 26.2538 82.0312C26.2538 83.11 27.1409 83.9844 28.2348 83.9844H28.2606C29.3545 83.9844 30.2416 83.11 30.2416 82.0312C30.2416 80.9525 29.3547 80.0781 28.2606 80.0781Z" fill="#FF7A00"/>
<path d="M16.0045 36.1699C15.636 35.8066 15.1249 35.5977 14.6039 35.5977C14.0829 35.5977 13.5718 35.8066 13.2034 36.1699C12.8351 36.5332 12.6229 37.0371 12.6229 37.5527C12.6229 38.0664 12.8349 38.5684 13.2034 38.9316C13.5718 39.2969 14.0811 39.5039 14.6039 39.5039C15.1249 39.5039 15.636 39.2969 16.0045 38.9316C16.3728 38.5684 16.5849 38.0664 16.5849 37.5527C16.5849 37.0371 16.373 36.5352 16.0045 36.1699Z" fill="#FF7A00"/>
<path d="M99.4464 48.0469H91.2185C94.7589 46.0391 97.1498 42.2742 97.1498 37.9666C97.1498 33.4947 94.5765 29.5141 90.6561 27.5772C91.3324 26.0947 91.6832 24.4848 91.6832 22.8217C91.6832 16.4127 86.3947 11.1984 79.8941 11.1984C77.8445 11.1984 75.8762 11.7082 74.122 12.6838C71.8205 11.0846 69.0683 10.2176 66.2269 10.2176C66.0342 10.2176 65.843 10.2242 65.652 10.232C63.5591 4.2168 57.7231 0.009375 51.1501 0.009375C45.2229 0.009375 39.8596 3.39395 37.3326 8.58008C36.8585 8.53672 36.3823 8.51484 35.9065 8.51484C29.6772 8.51484 24.1447 12.2236 21.7825 17.7539C21.3633 17.6277 20.9368 17.5176 20.504 17.4221C20.731 14.9258 21.5341 13.0121 22.9044 11.7254C24.0979 10.6045 25.2968 10.3723 25.3473 10.3629L25.3198 10.3674L25.3194 10.3652C25.7382 10.3045 26.1346 10.1141 26.4355 9.81602C26.8038 9.45273 27.0159 8.95078 27.0159 8.43711C27.0159 7.92148 26.804 7.41953 26.4355 7.0543C26.067 6.69102 25.5559 6.48203 25.0349 6.48203C24.9238 6.48203 24.8135 6.49355 24.7045 6.51191L24.7039 6.50859C23.5276 6.69121 21.9188 7.34121 20.435 8.66191V1.95312C20.435 0.874414 19.5479 0 18.454 0H13.6996C12.6057 0 11.7186 0.874414 11.7186 1.95312V9.25605C9.43968 6.50234 6.97947 4.89258 6.7887 4.76973C5.87367 4.18125 4.64981 4.43555 4.05135 5.33633C3.45269 6.2373 3.70844 7.44727 4.62089 8.03926C4.68646 8.08164 10.68 12.0387 11.5704 17.7311C4.86693 19.7164 0 25.5252 0 32.366C0 35.2082 1.64403 42.0328 3.25756 48.0469H1.981C0.887093 48.0469 0 48.9213 0 50V98.0469C0 99.1256 0.887093 100 1.981 100H99.4464C100.54 100 101.427 99.1256 101.427 98.0469V50C101.427 48.9213 100.54 48.0469 99.4464 48.0469ZM35.9065 12.4211C36.6686 12.4211 37.4316 12.4963 38.1751 12.6447C39.1426 12.8377 40.1064 12.2996 40.4356 11.382C42.0389 6.91621 46.3446 3.91563 51.1501 3.91563C55.8332 3.91563 60.0125 6.79434 61.7088 10.9746C56.358 12.8205 52.5081 17.8453 52.5081 23.743C52.5081 24.8217 53.3952 25.6961 54.4891 25.6961C55.583 25.6961 56.4701 24.8217 56.4701 23.743C56.4701 18.4389 60.8469 14.1238 66.2267 14.1238C68.6124 14.1238 70.91 14.9838 72.6957 16.5455C73.3999 17.1613 74.4469 17.2033 75.1997 16.6463C76.562 15.6377 78.1852 15.1047 79.8937 15.1047C84.2095 15.1047 87.7208 18.5666 87.7208 22.8217C87.7208 24.4945 87.1869 26.0861 86.1764 27.424C85.7814 27.9473 85.6772 28.6307 85.8993 29.2453C86.1213 29.86 86.6396 30.3248 87.2814 30.4844C90.7589 31.3488 93.1876 34.4256 93.1876 37.9666C93.1876 42.2217 89.6763 45.6836 85.3604 45.6836C84.8688 45.6836 84.3695 45.6363 83.8765 45.5432C82.9163 45.3611 81.9656 45.8979 81.6371 46.8057C81.482 47.2348 81.2857 47.6502 81.0549 48.0469H78.5541L86.6661 36.582C86.971 36.1512 87.0869 35.6172 86.9876 35.101C86.8884 34.5848 86.5823 34.1297 86.1388 33.8387L80.3632 30.0492C79.9133 29.7539 79.3602 29.6525 78.833 29.7691C78.3057 29.8855 77.8493 30.2092 77.5699 30.6654L74.6818 35.3803L77.046 23.5895C77.2568 22.5369 76.5674 21.5137 75.5016 21.2977L70.4609 20.2756C69.9401 20.1697 69.3977 20.2752 68.9564 20.5678C68.515 20.8604 68.2115 21.3156 68.1142 21.8311L67.4674 25.2559H62.8444C61.7504 25.2559 60.8633 26.1303 60.8633 27.209V38.448C59.5468 31.8018 53.5984 26.7695 46.4779 26.7695C43.2693 26.7695 40.2217 27.7732 37.665 29.6723C35.5566 31.2381 33.9007 33.3693 32.9043 35.7654C33.1566 34.2986 33.2811 33.1736 33.2811 32.3662C33.2811 29.7176 32.5514 27.2232 31.2684 25.0455C32.3092 22.2535 35.015 20.3568 38.0757 20.3568C38.562 20.3568 39.0493 20.4051 39.5244 20.5C40.4925 20.6941 41.4576 20.1545 41.7863 19.2359C42.2114 18.0488 42.9511 16.9869 43.9258 16.165C44.757 15.4639 44.8545 14.2309 44.1433 13.4111C43.4323 12.5914 42.1819 12.4955 41.3501 13.1965C40.2617 14.1145 39.3631 15.2273 38.7009 16.4678C38.4927 16.4563 38.2841 16.4506 38.0759 16.4506C34.1329 16.4506 30.571 18.4857 28.5615 21.66C27.6205 20.7668 26.5643 19.9787 25.4135 19.3166C27.1528 15.1912 31.2693 12.4211 35.9065 12.4211ZM72.4298 46.6123L79.8915 34.4316L82.2582 35.9846L73.7236 48.0469H72.1422L72.4298 46.6123ZM69.9518 38.8275V33.4043C69.9623 33.3633 69.9738 33.3227 69.9817 33.2805L71.6396 24.5023L72.7777 24.7332L69.9518 38.8275ZM64.8111 44.6588C64.8196 44.5848 64.8254 44.5098 64.8254 44.4336V29.1619H65.99V48.0469H65.3648C65.3701 47.9246 65.3731 47.8021 65.3731 47.6793C65.3731 46.6146 65.1726 45.5967 64.8111 44.6588ZM37.6391 35.5469C37.5804 35.5469 37.5228 35.5506 37.4641 35.5512C39.401 32.5863 42.7948 30.6756 46.4777 30.6756C51.7119 30.6756 56.0773 34.4023 56.9949 39.3053C54.2537 39.3244 51.8246 40.6844 50.3214 42.765C47.7816 38.4541 43.0498 35.5469 37.6391 35.5469ZM48.1497 48.0469H27.4403H27.1287C28.0607 43.1617 32.4177 39.4531 37.6393 39.4531C42.8608 39.4531 47.2176 43.1617 48.1497 48.0469ZM57.0529 43.2102C59.4561 43.2102 61.4111 45.215 61.4111 47.6793C61.4111 47.8025 61.4052 47.925 61.3955 48.0469H52.7101C52.7004 47.925 52.6945 47.8025 52.6945 47.6793C52.6947 45.215 54.6497 43.2102 57.0529 43.2102ZM15.6806 3.90625H16.473V17.0033C16.2074 17.0059 15.9431 17.0129 15.6806 17.0268V3.90625ZM4.08027 30.8223C4.20389 30.8461 4.33146 30.8594 4.46201 30.8594H14.2557C15.3496 30.8594 16.2367 29.985 16.2367 28.9062C16.2367 27.8275 15.3496 26.9531 14.2557 26.9531H5.46876C7.61022 23.3564 11.8141 20.9057 16.6404 20.9057C23.6314 20.9057 29.3188 26.0467 29.3188 32.366C29.3188 32.8756 29.2362 33.8158 28.9215 35.5469H21.0531C19.9592 35.5469 19.0721 36.4213 19.0721 37.5C19.0721 38.5787 19.9592 39.4531 21.0531 39.4531H27.6312C25.2277 41.6717 23.5817 44.6758 23.1173 48.0469H7.35764C5.1934 40.0809 3.96201 34.4047 3.96201 32.366C3.96201 31.8424 4.0046 31.3277 4.08027 30.8223ZM97.4654 64.0625H80.0325C78.9386 64.0625 78.0515 64.9369 78.0515 66.0156C78.0515 67.0943 78.9386 67.9688 80.0325 67.9688H97.4654V80.0781H34.9857C33.8918 80.0781 33.0047 80.9525 33.0047 82.0312C33.0047 83.11 33.8918 83.9844 34.9857 83.9844H97.4654V96.0938H3.96201V83.9844H21.3948C22.4887 83.9844 23.3758 83.11 23.3758 82.0312C23.3758 80.9525 22.4887 80.0781 21.3948 80.0781H3.96201V67.9688H66.4417C67.5356 67.9688 68.4227 67.0943 68.4227 66.0156C68.4227 64.9369 67.5356 64.0625 66.4417 64.0625H3.96201V51.9531H5.84059H97.4654V64.0625Z" fill="#FF7A00"/>
<path d="M48.6267 10.5469H48.6006C47.5067 10.5469 46.6196 11.4213 46.6196 12.5C46.6196 13.5787 47.5067 14.4531 48.6006 14.4531H48.6267C49.7206 14.4531 50.6077 13.5787 50.6077 12.5C50.6077 11.4213 49.7206 10.5469 48.6267 10.5469Z" fill="#FF7A00"/>
</svg>
