<svg width="50" height="50" viewBox="0 0 50 50" fill="none" xmlns="http://www.w3.org/2000/svg">
<path d="M0 25C0 38.8071 11.1929 50 25 50C38.8071 50 50 38.8071 50 25C50 11.1929 38.8071 0 25 0C11.1929 0 0 11.1929 0 25Z" fill="#1BD741"/>
<path d="M12.5421 37.6265L14.297 31.3938C13.1685 29.4767 12.5743 27.2954 12.5743 25.0547C12.5743 18.1553 18.1874 12.5422 25.0868 12.5422C31.9863 12.5422 37.5993 18.1553 37.5993 25.0547C37.5993 31.9541 31.9863 37.5672 25.0868 37.5672C22.937 37.5672 20.8319 37.0169 18.9697 35.972L12.5421 37.6265ZM19.2983 33.6956L19.6813 33.9295C21.305 34.9207 23.1742 35.4446 25.0868 35.4446C30.8159 35.4446 35.4767 30.7837 35.4767 25.0547C35.4767 19.3256 30.8159 14.6647 25.0868 14.6647C19.3578 14.6647 14.6969 19.3256 14.6969 25.0547C14.6969 27.0509 15.2642 28.9894 16.3374 30.6606L16.5954 31.0622L15.5848 34.6515L19.2983 33.6956Z" fill="white"/>
<path d="M21.572 19.231L20.7601 19.1867C20.5051 19.1728 20.2549 19.258 20.0622 19.4255C19.6686 19.7673 19.0392 20.4281 18.8459 21.2892C18.5576 22.5732 19.0031 24.1455 20.1561 25.7177C21.3091 27.29 23.4578 29.8055 27.2574 30.8799C28.4818 31.2262 29.445 30.9928 30.1881 30.5174C30.7766 30.1409 31.1824 29.5366 31.3286 28.8535L31.4582 28.248C31.4994 28.0556 31.4017 27.8603 31.2229 27.7779L28.479 26.5131C28.3008 26.431 28.0896 26.4829 27.9698 26.6382L26.8926 28.0346C26.8112 28.1401 26.6719 28.182 26.5461 28.1378C25.8084 27.8785 23.3373 26.8436 21.9814 24.2318C21.9226 24.1185 21.9372 23.981 22.0206 23.8844L23.0502 22.6934C23.1553 22.5718 23.1819 22.4008 23.1187 22.253L21.9359 19.4858C21.8729 19.3385 21.7318 19.2397 21.572 19.231Z" fill="white"/>
</svg>
